# xmcd CD database file
#
# Track frame offsets:
#	150
#	21160
#	42797
#	66692
#	88212
#	106035
#	128790
#	151585
#	168700
#	190690
#	209035
#	227675
#
# Disc length: 3224 seconds
#
# Revision: 7
# Processed by: cddbd v1.5.1PL2 Copyright (c) Steve Scherf et al.
# Submitted via: CDex 1.51
#
DISCID=a10c960c
DTITLE=RAZZ MA TAZZ - PROFILE -SINGLES-
DYEAR=1998
DGENRE=Pop
TTITLE0=FRUiTS
TTITLE1=Private Eyes
TTITLE2=僕のままで 君のままで -2nd Album Version-
TTITLE3=LOVE Re-Do -2nd Album Version-
TTITLE4=サヨナラのキスではじめよう -2nd Album Version-
TTITLE5=夜明け
TTITLE6=Season Train -3rd Album Version-
TTITLE7=MERRY-GO-ROUND
TTITLE8=orion -New Mix-
TTITLE9=あじさい
TTITLE10=Regret
TTITLE11=天使に殺されたのは誰？
EXTD=YEAR: 1998
EXTT0=
EXTT1=
EXTT2=
EXTT3=
EXTT4=
EXTT5=
EXTT6=
EXTT7=
EXTT8=
EXTT9=
EXTT10=
EXTT11=
PLAYORDER=
